<?xml version="1.0" standalone="no"?>
<!DOCTYPE svg PUBLIC "-//W3C//DTD SVG 20010904//EN"
 "http://www.w3.org/TR/2001/REC-SVG-20010904/DTD/svg10.dtd">
<svg version="1.0" xmlns="http://www.w3.org/2000/svg"
 width="225.000000pt" height="225.000000pt" viewBox="0 0 225.000000 225.000000"
 preserveAspectRatio="xMidYMid meet">

<g transform="translate(0.000000,225.000000) scale(0.100000,-0.100000)"
fill="#000000" stroke="none">
<path d="M53 2005 c-69 -49 29 -135 239 -210 l93 -33 3 -100 c2 -89 5 -100 22
-105 18 -5 19 2 22 92 2 57 7 95 13 94 6 -1 46 -9 90 -18 97 -20 212 -23 243
-7 22 13 28 36 15 67 -10 28 -118 91 -226 134 -211 82 -463 124 -514 86z"/>
<path d="M2015 2013 c-70 -10 -237 -57 -332 -94 -171 -67 -250 -130 -230 -183
15 -39 154 -40 304 -2 28 8 54 11 57 8 3 -3 6 -50 6 -104 0 -89 2 -99 18 -96
15 3 18 19 22 112 l5 108 90 32 c217 78 313 161 243 210 -22 16 -107 19 -183
9z"/>
<path d="M928 1639 c-21 -12 -25 -88 -6 -107 7 -7 44 -12 95 -12 l83 0 0 -50
c0 -43 3 -50 20 -50 17 0 20 7 20 50 l0 50 83 0 c51 0 88 5 95 12 16 16 16 90
0 106 -15 15 -365 16 -390 1z"/>
<path d="M290 1444 c-7 -55 -9 -99 -4 -104 5 -4 103 -25 217 -45 l209 -37 36
33 c21 19 40 36 44 39 12 9 29 113 21 121 -9 9 -446 89 -484 89 -25 0 -26 -4
-39 -96z"/>
<path d="M1645 1481 c-189 -31 -220 -39 -219 -54 0 -9 1 -32 2 -49 2 -26 13
-42 50 -75 l49 -41 203 33 c111 19 205 36 207 39 3 3 -1 45 -8 93 -13 83 -16
88 -39 89 -14 1 -124 -15 -245 -35z"/>
<path d="M987 1375 c-384 -106 -499 -588 -205 -860 l70 -65 -41 -51 c-44 -56
-47 -64 -29 -75 7 -5 31 15 62 50 l51 57 60 -22 c85 -31 245 -31 330 0 l60 22
51 -57 c31 -35 55 -55 62 -50 18 11 15 19 -29 75 l-41 51 71 66 c295 274 176
756 -212 860 -64 17 -196 17 -260 -1z m326 -88 c174 -86 278 -282 248 -464
-33 -194 -179 -342 -371 -375 -239 -41 -472 130 -510 375 -28 178 69 370 229
456 80 43 121 51 233 47 89 -3 105 -6 171 -39z"/>
<path d="M1020 1274 c-119 -32 -208 -107 -264 -224 -28 -59 -31 -74 -31 -160
1 -75 5 -107 24 -153 32 -81 115 -168 199 -209 62 -31 73 -33 172 -33 98 0
110 2 170 32 83 41 152 110 193 193 30 60 32 72 32 165 0 92 -3 106 -32 167
-55 116 -145 191 -270 223 -70 18 -121 18 -193 -1z m298 -324 c47 -29 72 -76
72 -135 0 -171 -234 -211 -295 -51 -29 75 -3 143 69 187 41 25 112 25 154 -1z"/>
<path d="M1190 912 c-58 -29 -77 -95 -43 -152 48 -82 181 -58 199 37 9 50 -17
100 -61 119 -44 18 -53 18 -95 -4z"/>
<path d="M390 944 l0 -343 -142 -116 c-79 -64 -143 -121 -143 -128 0 -31 40
-9 155 84 l125 101 5 -153 c4 -136 7 -154 23 -157 16 -3 17 9 17 152 0 86 3
156 6 156 4 0 63 -45 131 -100 122 -97 145 -111 158 -91 7 12 -5 23 -164 151
l-131 105 0 336 c0 328 -1 337 -20 342 -20 5 -20 0 -20 -339z"/>
<path d="M1838 1282 c-17 -3 -18 -28 -18 -340 l0 -337 -131 -105 c-159 -128
-171 -139 -164 -151 13 -20 36 -6 158 91 68 55 127 100 131 100 3 0 6 -70 6
-156 0 -143 1 -155 18 -152 15 3 18 21 22 157 l5 153 125 -101 c116 -95 148
-112 157 -86 2 6 -62 64 -142 128 l-145 118 -2 342 c-3 320 -4 342 -20 339z"/>
</g>
</svg>
