<?xml version="1.0" standalone="no"?>
<!DOCTYPE svg PUBLIC "-//W3C//DTD SVG 20010904//EN"
 "http://www.w3.org/TR/2001/REC-SVG-20010904/DTD/svg10.dtd">
<svg version="1.0" xmlns="http://www.w3.org/2000/svg"
 width="225.000000pt" height="225.000000pt" viewBox="0 0 225.000000 225.000000"
 preserveAspectRatio="xMidYMid meet">

<g transform="translate(0.000000,225.000000) scale(0.100000,-0.100000)"
fill="#000000" stroke="none">
<path d="M1838 2053 c-53 -54 -106 -118 -118 -143 -15 -30 -105 -128 -278
-302 -141 -142 -261 -258 -265 -258 -5 0 -23 11 -40 24 -85 65 -192 84 -272
47 -58 -26 -119 -98 -145 -170 -33 -89 -56 -104 -195 -130 -64 -12 -141 -31
-171 -42 -78 -29 -174 -122 -216 -207 -31 -63 -33 -73 -33 -177 0 -128 15
-183 77 -289 51 -87 137 -173 224 -224 106 -62 161 -77 289 -77 104 0 114 2
177 33 85 42 178 138 207 216 11 30 30 107 42 171 26 139 41 162 130 195 72
26 144 87 170 145 37 80 18 187 -47 272 -13 17 -24 35 -24 40 0 4 116 124 258
265 184 183 271 263 307 281 30 15 88 64 144 121 l95 95 -17 53 c-20 65 -74
121 -136 143 -24 8 -49 15 -55 15 -6 0 -55 -44 -108 -97z m180 -10 c13 -8 30
-31 39 -50 l15 -36 -68 -68 c-42 -42 -94 -83 -135 -104 -59 -31 -117 -85 -458
-433 l-390 -397 21 -22 c12 -13 24 -23 28 -23 4 0 55 48 113 107 103 104 107
107 122 88 95 -121 73 -242 -54 -301 -110 -51 -124 -59 -149 -93 -20 -25 -33
-66 -53 -166 -32 -155 -56 -210 -118 -272 -153 -154 -405 -128 -596 62 -190
189 -216 443 -60 599 60 60 118 84 269 114 165 32 197 54 241 162 64 157 165
196 293 113 23 -15 42 -30 42 -33 0 -4 -47 -53 -105 -110 -58 -56 -105 -106
-105 -110 0 -3 10 -16 22 -28 l23 -21 398 391 c340 334 403 400 429 452 18 35
61 92 101 134 75 76 82 79 135 45z"/>
<path d="M743 929 c-40 -25 -66 -88 -57 -136 4 -20 21 -49 39 -68 88 -87 225
-27 225 100 0 42 -5 52 -39 86 -34 35 -44 39 -87 39 -32 0 -60 -7 -81 -21z"/>
<path d="M467 739 c-9 -6 -17 -18 -17 -27 0 -22 240 -262 262 -262 10 0 22 9
28 21 10 18 -1 33 -107 141 -65 66 -125 123 -133 128 -9 5 -23 4 -33 -1z"/>
</g>
</svg>
