<?xml version="1.0" standalone="no"?>
<!DOCTYPE svg PUBLIC "-//W3C//DTD SVG 20010904//EN"
 "http://www.w3.org/TR/2001/REC-SVG-20010904/DTD/svg10.dtd">
<svg version="1.0" xmlns="http://www.w3.org/2000/svg"
 width="512.000000pt" height="512.000000pt" viewBox="0 0 512.000000 512.000000"
 preserveAspectRatio="xMidYMid meet">

<g transform="translate(0.000000,512.000000) scale(0.100000,-0.100000)"
fill="#000000" stroke="none">
<path d="M1386 5105 c-43 -15 -100 -65 -122 -107 -8 -15 -70 -370 -139 -789
-69 -420 -127 -764 -128 -766 -2 -1 -43 38 -92 87 l-89 90 26 27 c15 16 32 41
37 56 16 41 13 123 -4 157 -29 56 -183 285 -207 307 -81 76 -204 67 -287 -21
-19 -20 -40 -36 -46 -36 -5 0 -75 65 -155 145 -80 80 -153 145 -162 145 -16 0
-18 -11 -18 -88 l0 -87 115 -115 115 -115 -50 -50 c-77 -79 -98 -153 -65 -232
23 -54 37 -67 184 -165 154 -104 184 -118 245 -118 58 0 93 14 134 53 l32 31
130 -129 129 -130 -225 -1364 c-123 -750 -224 -1382 -224 -1403 0 -113 86
-195 222 -213 l48 -6 0 -70 c0 -86 17 -128 66 -165 l37 -29 231 -3 c127 -2
246 0 264 3 45 8 109 68 122 113 5 21 10 63 10 95 l0 57 705 0 705 0 0 -70 c0
-87 17 -129 66 -166 l37 -29 231 -3 c127 -2 246 0 264 3 45 8 109 68 122 113
5 21 10 63 10 94 0 63 -5 59 81 73 45 7 120 70 144 121 10 22 17 59 17 88 -1
78 -91 607 -107 632 -32 49 -117 35 -131 -21 -3 -14 15 -152 40 -307 25 -156
46 -293 46 -305 0 -13 -9 -32 -20 -43 -20 -20 -33 -20 -1511 -20 -997 0 -1497
3 -1509 10 -44 24 -45 20 75 752 64 387 118 713 121 726 l4 22 1304 0 1303 0
36 -222 c20 -121 43 -231 52 -244 19 -30 50 -39 84 -24 62 25 66 -14 -77 867
-73 444 -140 862 -151 928 -203 1224 -283 1696 -292 1725 -18 55 -54 96 -111
124 l-52 26 -790 0 c-647 -1 -798 -3 -830 -15z m1623 -161 c12 -15 27 -79 45
-190 15 -93 30 -179 33 -191 l5 -23 -876 0 c-694 0 -876 3 -876 13 1 46 61
371 71 384 7 8 22 19 34 24 11 4 364 7 783 6 l764 -2 17 -21z m-649 -1531 c0
-533 -3 -1046 -7 -1141 l-6 -174 -129 129 -128 128 0 1012 0 1013 135 0 135 0
0 -967z m-220 -1315 c0 -4 -11 -8 -25 -8 -21 0 -25 5 -25 32 l0 31 25 -23 c14
-13 25 -27 25 -32z"/>
<path d="M2125 1521 c-154 -72 -185 -278 -58 -392 56 -51 92 -60 220 -57 101
3 112 5 145 30 69 53 88 157 41 224 -11 16 -23 41 -26 55 -12 47 -63 105 -118
133 -65 32 -144 35 -204 7z m151 -152 c42 -35 29 -120 -23 -140 -97 -37 -158
96 -68 149 22 13 70 8 91 -9z"/>
</g>
</svg>
