<?xml version="1.0" standalone="no"?>
<!DOCTYPE svg PUBLIC "-//W3C//DTD SVG 20010904//EN"
 "http://www.w3.org/TR/2001/REC-SVG-20010904/DTD/svg10.dtd">
<svg version="1.0" xmlns="http://www.w3.org/2000/svg"
 width="225.000000pt" height="225.000000pt" viewBox="0 0 225.000000 225.000000"
 preserveAspectRatio="xMidYMid meet">

<g transform="translate(0.000000,225.000000) scale(0.100000,-0.100000)"
fill="#000000" stroke="none">
<path d="M420 1125 l0 -375 705 0 705 0 0 375 0 375 -705 0 -705 0 0 -375z
m170 46 c0 -121 3 -151 15 -161 13 -11 15 -34 13 -124 l-3 -111 -82 -3 -83 -3
0 276 0 275 70 0 70 0 0 -149z m190 6 c0 -132 2 -145 20 -162 19 -17 20 -29
18 -129 l-3 -111 -85 0 -85 0 -3 111 c-2 100 -1 112 18 129 18 17 20 30 20
162 l0 143 50 0 50 0 0 -143z m230 -132 l0 -276 -82 3 -83 3 -3 111 c-2 90 0
113 13 124 12 10 15 39 15 155 0 78 3 145 7 148 3 4 35 7 70 7 l63 0 0 -275z
m170 126 c0 -120 3 -151 15 -161 12 -10 15 -37 15 -126 l0 -114 -85 0 -85 0 0
275 0 275 70 0 70 0 0 -149z m200 0 c0 -121 3 -151 15 -161 13 -11 15 -34 13
-124 l-3 -111 -82 -3 -83 -3 0 116 c0 90 3 120 15 131 12 12 15 45 15 160 l0
144 55 0 55 0 0 -149z m190 6 c0 -132 2 -145 20 -162 19 -17 20 -29 18 -129
l-3 -111 -85 0 -85 0 -3 111 c-2 100 -1 112 18 129 18 17 20 30 20 162 l0 143
50 0 50 0 0 -143z m230 -132 l0 -276 -82 3 -83 3 -3 111 c-2 90 0 113 13 124
12 10 15 40 15 161 l0 149 70 0 70 0 0 -275z"/>
</g>
</svg>
