<?xml version="1.0" standalone="no"?>
<!DOCTYPE svg PUBLIC "-//W3C//DTD SVG 20010904//EN"
 "http://www.w3.org/TR/2001/REC-SVG-20010904/DTD/svg10.dtd">
<svg version="1.0" xmlns="http://www.w3.org/2000/svg"
 width="300.000000pt" height="300.000000pt" viewBox="0 0 300.000000 300.000000"
 preserveAspectRatio="xMidYMid meet">
<metadata>
Created by potrace 1.10, written by Peter Selinger 2001-2011
</metadata>
<g transform="translate(0.000000,300.000000) scale(0.100000,-0.100000)"
fill="#000000" stroke="none">
<path d="M854 2728 c-378 -89 -639 -462 -593 -845 22 -179 74 -291 199 -426
191 -207 459 -300 727 -253 102 18 224 62 287 105 50 34 62 29 147 -55 43 -43
59 -66 59 -85 0 -22 58 -88 308 -345 628 -649 563 -587 597 -578 35 9 129 99
138 133 5 21 -32 63 -296 335 -545 562 -580 596 -608 596 -19 0 -43 18 -89 65
-49 51 -65 63 -76 54 -22 -18 -38 0 -18 22 14 15 20 17 27 7 6 -9 7 -8 3 5 -4
11 4 31 18 50 42 55 105 199 121 275 19 93 19 250 0 339 -53 250 -214 445
-453 549 -42 18 -68 34 -60 38 7 3 4 4 -7 1 -11 -3 -49 1 -85 9 -52 11 -59 14
-35 17 17 2 -30 4 -104 4 -92 0 -158 -5 -207 -17z m338 -23 c318 -67 547 -320
588 -650 24 -190 -33 -394 -151 -545 -53 -69 -70 -86 -138 -139 -285 -222
-709 -199 -966 52 -202 199 -282 495 -201 750 69 218 204 374 411 476 134 67
308 88 457 56z m518 -1322 c18 -21 49 -55 68 -75 34 -36 34 -37 11 -35 -27 2
-154 129 -142 141 14 13 31 5 63 -31z m-41 -85 c62 -65 64 -69 45 -83 -18 -13
-23 -10 -81 53 -49 54 -59 70 -50 81 8 10 4 9 -14 -2 -33 -22 -45 -10 -18 19
26 28 30 25 118 -68z m361 -202 c167 -173 432 -446 604 -623 72 -74 79 -84 69
-105 -11 -22 -13 -20 -88 57 -116 120 -405 416 -614 627 -101 103 -188 185
-194 181 -9 -5 4 -19 183 -204 52 -54 163 -168 245 -254 83 -86 174 -180 202
-209 29 -29 50 -56 46 -59 -3 -4 0 -7 9 -7 18 0 151 -136 146 -150 -2 -7 -13
-3 -27 9 -13 12 -20 25 -15 32 4 8 3 9 -4 5 -6 -4 -19 3 -29 15 -10 12 -33 36
-52 53 -18 17 -113 111 -210 209 -97 98 -258 261 -359 362 -176 177 -182 184
-160 196 13 7 29 20 36 31 7 10 19 17 25 17 7 -1 91 -83 187 -183z m71 -248
c520 -533 544 -558 525 -558 -9 0 -19 -7 -22 -15 -4 -8 -12 -15 -19 -15 -7 0
-75 64 -150 143 -76 78 -271 279 -434 446 l-296 303 24 19 c13 10 26 19 30 19
4 0 157 -154 342 -342z"/>
<path d="M1028 2705 c-1 -1 -32 -5 -68 -8 -168 -15 -373 -132 -484 -276 -48
-62 -100 -153 -111 -191 -4 -14 12 11 35 55 118 227 308 360 566 396 240 34
493 -72 655 -274 51 -64 50 -49 -1 20 -89 117 -257 224 -405 256 -67 15 -180
29 -187 22z"/>
<path d="M340 2162 c-35 -132 -37 -277 -5 -372 8 -25 13 -34 10 -20 -29 143
-28 262 0 372 8 29 12 54 10 56 -2 2 -9 -14 -15 -36z"/>
<path d="M351 1733 c-1 -15 46 -123 53 -123 3 0 -5 24 -18 53 -13 28 -26 59
-29 67 -3 9 -6 10 -6 3z"/>
<path d="M557 1604 c-70 -19 -79 -25 -27 -18 25 4 59 12 75 19 38 17 14 16
-48 -1z"/>
<path d="M695 1574 c113 -107 296 -230 380 -256 68 -21 85 -16 22 6 -99 35
-196 94 -332 202 -66 52 -97 74 -70 48z"/>
<path d="M424 1575 c45 -91 165 -205 277 -265 81 -43 87 -37 8 8 -116 66 -167
113 -285 267 -13 18 -14 17 0 -10z"/>
</g>
</svg>
